# xmcd
#
# Track frame offsets:
#	150
#	17874
#	41480
#	57263
#	74637
#	88344
#	104007
#	118699
#	140383
#	158212
#	172192
#	188575
#	206698
#	225034
#	240267
#
# Disc length: 3412 seconds
#
# Revision: 0
# Processed by: cddbd v1.5.1PL2 Copyright (c) Steve Scherf et al.
# Submitted via: audiograbber 1.83.01
#
DISCID=ce0d520f
DTITLE=Varios - Flash Back
DYEAR=2004
DGENRE=Romantico
TTITLE0=Love S Theme
TTITLE1=Just The Way You Are
TTITLE2=You Ll Never Find Another
TTITLE3=Ruby
TTITLE4=Never Can T Say Goodbye
TTITLE5=You Re The First My Last My Everthing
TTITLE6=I Heard It Thoungh The Grapevine
TTITLE7=You Make Me Feel Brand New
TTITLE8=The Closer I Get To You
TTITLE9=I Love The Nightlife
TTITLE10=Young Heart Run Free
TTITLE11=Superwoman
TTITLE12=Don T Leave Me This Way
TTITLE13=Let The Music Play
TTITLE14=Long Train Running
EXTD=
EXTT0=
EXTT1=
EXTT2=
EXTT3=
EXTT4=
EXTT5=
EXTT6=
EXTT7=
EXTT8=
EXTT9=
EXTT10=
EXTT11=
EXTT12=
EXTT13=
EXTT14=
PLAYORDER=
